#tb 0: 1/25
#media_type 0: video
#codec_id 0: rawvideo
#dimensions 0: 352x288
#sar 0: 1/1
0,          1,          1,        1,   152064, 0x69a58723
0,          2,          2,        1,   152064, 0xb42d52c3
0,          3,          3,        1,   152064, 0x9376ce65
0,          4,          4,        1,   152064, 0x796543f9
0,          5,          5,        1,   152064, 0x5027b118
